<mxfile host="app.diagrams.net" modified="2023-06-28T11:53:08.581Z" agent="Mozilla/5.0 (X11; Ubuntu; Linux x86_64; rv:109.0) Gecko/20100101 Firefox/113.0" version="21.5.1" etag="VfDQhXE5Hbr-169OZyxc" type="github">
  <diagram name="Page-1" id="K7tpPM3fMPWUOehcnThG">
    <mxGraphModel>
      <root>
        <mxCell id="0" />
        <mxCell id="1" parent="0" />
      </root>
    </mxGraphModel>
  </diagram>
</mxfile>
